<?xml version="1.0" encoding="UTF-8"?>
<!DOCTYPE svg PUBLIC "-//W3C//DTD SVG 1.1//EN" "http://www.w3.org/Graphics/SVG/1.1/DTD/svg11.dtd">
<svg xmlns="http://www.w3.org/2000/svg" version="1.1" width="500px" height="500px" style="shape-rendering:geometricPrecision; text-rendering:geometricPrecision; image-rendering:optimizeQuality; fill-rule:evenodd; clip-rule:evenodd"
    xmlns:xlink="http://www.w3.org/1999/xlink">
    <g>
        <path style="opacity:0.343" fill="#979797" d="M 257.5,111.5 C 268.988,110.505 280.655,110.172 292.5,110.5C 292.5,114.5 292.5,118.5 292.5,122.5C 288.988,121.945 285.988,122.612 283.5,124.5C 282.596,123.791 282.263,122.791 282.5,121.5C 285.5,121.5 288.5,121.5 291.5,121.5C 291.5,118.167 291.5,114.833 291.5,111.5C 280.167,111.5 268.833,111.5 257.5,111.5 Z"/>
    </g>
    <g>
        <path style="opacity:0.341" fill="#9d9d9d" d="M 338.5,123.5 C 341.337,121.598 344.671,120.931 348.5,121.5C 348.5,118.167 348.5,114.833 348.5,111.5C 337.167,111.5 325.833,111.5 314.5,111.5C 314.5,114.833 314.5,118.167 314.5,121.5C 317.898,121.18 321.232,121.513 324.5,122.5C 324.376,123.107 324.043,123.44 323.5,123.5C 320.375,122.521 317.042,122.187 313.5,122.5C 313.5,118.5 313.5,114.5 313.5,110.5C 325.5,110.5 337.5,110.5 349.5,110.5C 349.5,114.5 349.5,118.5 349.5,122.5C 345.731,122.244 342.064,122.577 338.5,123.5 Z"/>
    </g>
    <g>
        <path style="opacity:1" fill="#121212" d="M 257.5,111.5 C 268.833,111.5 280.167,111.5 291.5,111.5C 291.5,114.833 291.5,118.167 291.5,121.5C 288.5,121.5 285.5,121.5 282.5,121.5C 282.263,122.791 282.596,123.791 283.5,124.5C 290.259,138.354 296.759,152.354 303,166.5C 309.865,152.106 316.698,137.773 323.5,123.5C 324.043,123.44 324.376,123.107 324.5,122.5C 321.232,121.513 317.898,121.18 314.5,121.5C 314.5,118.167 314.5,114.833 314.5,111.5C 325.833,111.5 337.167,111.5 348.5,111.5C 348.5,114.833 348.5,118.167 348.5,121.5C 344.671,120.931 341.337,121.598 338.5,123.5C 329.616,142.268 320.45,160.934 311,179.5C 310.5,193.829 310.333,208.163 310.5,222.5C 316.833,222.5 323.167,222.5 329.5,222.5C 329.5,226.167 329.5,229.833 329.5,233.5C 311.833,233.5 294.167,233.5 276.5,233.5C 276.5,229.833 276.5,226.167 276.5,222.5C 283.167,222.5 289.833,222.5 296.5,222.5C 297.166,215.508 297.5,208.341 297.5,201C 297.497,193.467 296.831,186.301 295.5,179.5C 286.18,160.86 276.847,142.193 267.5,123.5C 264.232,122.513 260.898,122.18 257.5,122.5C 257.5,118.833 257.5,115.167 257.5,111.5 Z"/>
    </g>
    <g>
        <path style="opacity:1" fill="#010101" d="M 205.5,124.5 C 188.991,124.17 172.658,124.504 156.5,125.5C 156.5,157.833 156.5,190.167 156.5,222.5C 172.833,222.5 189.167,222.5 205.5,222.5C 205.5,226.5 205.5,230.5 205.5,234.5C 185.167,234.5 164.833,234.5 144.5,234.5C 144.5,193.833 144.5,153.167 144.5,112.5C 164.833,112.5 185.167,112.5 205.5,112.5C 205.5,116.5 205.5,120.5 205.5,124.5 Z"/>
    </g>
    <g>
        <path style="opacity:0.764" fill="#434343" d="M 156.5,125.5 C 172.658,124.504 188.991,124.17 205.5,124.5C 209.5,124.5 213.5,124.5 217.5,124.5C 217.5,124.833 217.5,125.167 217.5,125.5C 213.298,125.183 209.298,125.517 205.5,126.5C 189.578,125.516 173.578,125.183 157.5,125.5C 157.167,125.5 156.833,125.5 156.5,125.5 Z"/>
    </g>
    <g>
        <path style="opacity:1" fill="#141414" d="M 217.5,125.5 C 217.5,129.5 217.5,133.5 217.5,137.5C 213.167,137.5 208.833,137.5 204.5,137.5C 204.244,133.731 204.577,130.064 205.5,126.5C 209.298,125.517 213.298,125.183 217.5,125.5 Z"/>
    </g>
    <g>
        <path style="opacity:1" fill="#000000" d="M 218.5,137.5 C 222.167,137.5 225.833,137.5 229.5,137.5C 229.5,161.5 229.5,185.5 229.5,209.5C 225.833,209.5 222.167,209.5 218.5,209.5C 218.5,185.5 218.5,161.5 218.5,137.5 Z"/>
    </g>
    <g>
        <path style="opacity:0.349" fill="#a4a4a4" d="M 217.5,124.5 C 218.483,128.298 218.817,132.298 218.5,136.5C 222.5,136.5 226.5,136.5 230.5,136.5C 230.831,161.339 230.498,186.006 229.5,210.5C 229.5,210.167 229.5,209.833 229.5,209.5C 229.5,185.5 229.5,161.5 229.5,137.5C 225.833,137.5 222.167,137.5 218.5,137.5C 218.167,137.5 217.833,137.5 217.5,137.5C 217.5,133.5 217.5,129.5 217.5,125.5C 217.5,125.167 217.5,124.833 217.5,124.5 Z"/>
    </g>
    <g>
        <path style="opacity:0.804" fill="#373737" d="M 217.5,137.5 C 217.833,137.5 218.167,137.5 218.5,137.5C 218.5,161.5 218.5,185.5 218.5,209.5C 222.167,209.5 225.833,209.5 229.5,209.5C 229.5,209.833 229.5,210.167 229.5,210.5C 225.833,210.5 222.167,210.5 218.5,210.5C 218.167,210.5 217.833,210.5 217.5,210.5C 217.5,210.167 217.5,209.833 217.5,209.5C 217.5,185.5 217.5,161.5 217.5,137.5 Z"/>
    </g>
    <g>
        <path style="opacity:0.761" fill="#3c3c3c" d="M 295.5,179.5 C 296.831,186.301 297.497,193.467 297.5,201C 297.5,208.341 297.166,215.508 296.5,222.5C 296.816,208.088 296.482,193.755 295.5,179.5 Z"/>
    </g>
    <g>
        <path style="opacity:1" fill="#050505" d="M 205.5,209.5 C 209.5,209.5 213.5,209.5 217.5,209.5C 217.5,209.833 217.5,210.167 217.5,210.5C 217.5,214.167 217.5,217.833 217.5,221.5C 213.5,221.5 209.5,221.5 205.5,221.5C 205.5,217.5 205.5,213.5 205.5,209.5 Z"/>
    </g>
    <g>
        <path style="opacity:0.665" fill="#8a8a8a" d="M 156.5,125.5 C 156.833,125.5 157.167,125.5 157.5,125.5C 157.5,157.5 157.5,189.5 157.5,221.5C 173.167,221.5 188.833,221.5 204.5,221.5C 204.183,217.298 204.517,213.298 205.5,209.5C 205.5,213.5 205.5,217.5 205.5,221.5C 209.5,221.5 213.5,221.5 217.5,221.5C 217.5,217.833 217.5,214.167 217.5,210.5C 217.833,210.5 218.167,210.5 218.5,210.5C 218.5,214.5 218.5,218.5 218.5,222.5C 214.167,222.5 209.833,222.5 205.5,222.5C 189.167,222.5 172.833,222.5 156.5,222.5C 156.5,190.167 156.5,157.833 156.5,125.5 Z"/>
    </g>
    <g>
        <path style="opacity:0.341" fill="#939393" d="M 336.5,263.5 C 339.625,262.521 342.958,262.187 346.5,262.5C 346.5,259.167 346.5,255.833 346.5,252.5C 335.167,252.5 323.833,252.5 312.5,252.5C 312.5,255.833 312.5,259.167 312.5,262.5C 315.5,262.5 318.5,262.5 321.5,262.5C 321.737,263.791 321.404,264.791 320.5,265.5C 318.012,263.612 315.012,262.945 311.5,263.5C 311.5,259.5 311.5,255.5 311.5,251.5C 323.5,251.5 335.5,251.5 347.5,251.5C 347.5,255.5 347.5,259.5 347.5,263.5C 343.833,263.5 340.167,263.5 336.5,263.5 Z"/>
    </g>
    <g>
        <path style="opacity:1" fill="#151515" d="M 294.5,262.5 C 291.167,262.5 287.833,262.5 284.5,262.5C 284.263,263.791 284.596,264.791 285.5,265.5C 291.948,276.73 297.614,288.397 302.5,300.5C 303.301,302.793 303.968,302.46 304.5,299.5C 309.324,287.856 314.657,276.523 320.5,265.5C 321.404,264.791 321.737,263.791 321.5,262.5C 318.5,262.5 315.5,262.5 312.5,262.5C 312.5,259.167 312.5,255.833 312.5,252.5C 323.833,252.5 335.167,252.5 346.5,252.5C 346.5,255.833 346.5,259.167 346.5,262.5C 342.958,262.187 339.625,262.521 336.5,263.5C 328.448,279.936 320.115,296.269 311.5,312.5C 319.798,329.29 328.298,345.957 337,362.5C 341.066,363.464 345.233,363.797 349.5,363.5C 349.5,367.167 349.5,370.833 349.5,374.5C 337.5,374.5 325.5,374.5 313.5,374.5C 313.5,370.833 313.5,367.167 313.5,363.5C 316.247,363.813 318.914,363.48 321.5,362.5C 315.276,350.72 309.609,338.72 304.5,326.5C 304.289,324.576 303.623,324.243 302.5,325.5C 297.176,338.294 291.176,350.794 284.5,363C 287.146,363.497 289.813,363.664 292.5,363.5C 292.5,367.167 292.5,370.833 292.5,374.5C 280.5,374.5 268.5,374.5 256.5,374.5C 256.5,370.833 256.5,367.167 256.5,363.5C 260.767,363.797 264.934,363.464 269,362.5C 277.452,345.762 286.285,329.262 295.5,313C 286.873,296.912 278.373,280.746 270,264.5C 266.606,263.544 263.106,263.211 259.5,263.5C 259.5,259.5 259.5,255.5 259.5,251.5C 271.167,251.5 282.833,251.5 294.5,251.5C 294.5,255.167 294.5,258.833 294.5,262.5 Z"/>
    </g>
    <g>
        <path style="opacity:1" fill="#010101" d="M 205.5,265.5 C 188.991,265.17 172.658,265.504 156.5,266.5C 156.5,298.833 156.5,331.167 156.5,363.5C 172.833,363.5 189.167,363.5 205.5,363.5C 205.5,367.5 205.5,371.5 205.5,375.5C 185.167,375.5 164.833,375.5 144.5,375.5C 144.5,334.833 144.5,294.167 144.5,253.5C 164.833,253.5 185.167,253.5 205.5,253.5C 205.5,257.5 205.5,261.5 205.5,265.5 Z"/>
    </g>
    <g>
        <path style="opacity:0.612" fill="#6b6b6b" d="M 294.5,262.5 C 291.203,262.89 288.203,263.89 285.5,265.5C 284.596,264.791 284.263,263.791 284.5,262.5C 287.833,262.5 291.167,262.5 294.5,262.5 Z"/>
    </g>
    <g>
        <path style="opacity:0.761" fill="#414141" d="M 156.5,266.5 C 172.658,265.504 188.991,265.17 205.5,265.5C 209.5,265.5 213.5,265.5 217.5,265.5C 217.5,265.833 217.5,266.167 217.5,266.5C 213.298,266.183 209.298,266.517 205.5,267.5C 189.578,266.516 173.578,266.183 157.5,266.5C 157.167,266.5 156.833,266.5 156.5,266.5 Z"/>
    </g>
    <g>
        <path style="opacity:1" fill="#101010" d="M 217.5,266.5 C 217.5,270.5 217.5,274.5 217.5,278.5C 213.167,278.5 208.833,278.5 204.5,278.5C 204.552,274.802 204.886,271.135 205.5,267.5C 209.298,266.517 213.298,266.183 217.5,266.5 Z"/>
    </g>
    <g>
        <path style="opacity:1" fill="#000000" d="M 218.5,278.5 C 222.167,278.5 225.833,278.5 229.5,278.5C 229.5,302.5 229.5,326.5 229.5,350.5C 225.833,350.5 222.167,350.5 218.5,350.5C 218.5,326.5 218.5,302.5 218.5,278.5 Z"/>
    </g>
    <g>
        <path style="opacity:0.806" fill="#373737" d="M 217.5,278.5 C 217.833,278.5 218.167,278.5 218.5,278.5C 218.5,302.5 218.5,326.5 218.5,350.5C 222.167,350.5 225.833,350.5 229.5,350.5C 229.5,350.833 229.5,351.167 229.5,351.5C 225.833,351.5 222.167,351.5 218.5,351.5C 218.167,351.5 217.833,351.5 217.5,351.5C 217.5,351.167 217.5,350.833 217.5,350.5C 217.5,326.5 217.5,302.5 217.5,278.5 Z"/>
    </g>
    <g>
        <path style="opacity:0.349" fill="#a4a4a4" d="M 217.5,265.5 C 218.483,269.298 218.817,273.298 218.5,277.5C 222.5,277.5 226.5,277.5 230.5,277.5C 230.831,302.339 230.498,327.006 229.5,351.5C 229.5,351.167 229.5,350.833 229.5,350.5C 229.5,326.5 229.5,302.5 229.5,278.5C 225.833,278.5 222.167,278.5 218.5,278.5C 218.167,278.5 217.833,278.5 217.5,278.5C 217.5,274.5 217.5,270.5 217.5,266.5C 217.5,266.167 217.5,265.833 217.5,265.5 Z"/>
    </g>
    <g>
        <path style="opacity:0.584" fill="#8e8e8e" d="M 304.5,299.5 C 303.968,302.46 303.301,302.793 302.5,300.5C 303.167,300.167 303.833,299.833 304.5,299.5 Z"/>
    </g>
    <g>
        <path style="opacity:0.443" fill="#bfbfbf" d="M 302.5,325.5 C 303.623,324.243 304.289,324.576 304.5,326.5C 303.833,326.167 303.167,325.833 302.5,325.5 Z"/>
    </g>
    <g>
        <path style="opacity:1" fill="#040404" d="M 205.5,350.5 C 209.5,350.5 213.5,350.5 217.5,350.5C 217.5,350.833 217.5,351.167 217.5,351.5C 217.5,355.167 217.5,358.833 217.5,362.5C 213.5,362.5 209.5,362.5 205.5,362.5C 205.5,358.5 205.5,354.5 205.5,350.5 Z"/>
    </g>
    <g>
        <path style="opacity:0.658" fill="#8a8a8a" d="M 156.5,266.5 C 156.833,266.5 157.167,266.5 157.5,266.5C 157.5,298.5 157.5,330.5 157.5,362.5C 173.167,362.5 188.833,362.5 204.5,362.5C 204.183,358.298 204.517,354.298 205.5,350.5C 205.5,354.5 205.5,358.5 205.5,362.5C 209.5,362.5 213.5,362.5 217.5,362.5C 217.5,358.833 217.5,355.167 217.5,351.5C 217.833,351.5 218.167,351.5 218.5,351.5C 218.5,355.5 218.5,359.5 218.5,363.5C 214.167,363.5 209.833,363.5 205.5,363.5C 189.167,363.5 172.833,363.5 156.5,363.5C 156.5,331.167 156.5,298.833 156.5,266.5 Z"/>
    </g>
</svg>
