<svg width="50" height="50" viewBox="0 0 50 50" fill="none" xmlns="http://www.w3.org/2000/svg">
<path d="M25 50C38.8071 50 50 38.8071 50 25C50 11.1929 38.8071 0 25 0C11.1929 0 0 11.1929 0 25C0 38.8071 11.1929 50 25 50Z" fill="black"/>
<path d="M23.8437 24.8245H20.858C20.858 26.8628 20.3414 29.1599 19.365 30.7103C17.1256 29.3896 15.3169 27.4085 13.8239 25.5712C17.0683 24.5953 21.0013 22.9298 21.0013 18.7954C21.0013 15.6369 18.7619 13.1965 14.8571 13.1965C10.6654 13.1965 8.45469 16.1249 8.45469 19.2256C8.45469 20.891 8.91402 22.6419 9.88998 24.537C7.53602 25.8291 6.3877 27.8101 6.3877 30.0208C6.3877 33.7819 9.89044 36.1649 14.1108 36.1649C16.0632 36.1649 18.0443 35.39 19.7956 33.8969C22.0063 35.1603 24.4754 35.792 26.973 35.792V33.2944C25.5086 33.2371 23.0969 32.8064 21.7762 31.9737C23.1256 29.878 23.7859 27.2653 23.8432 24.8249L23.8437 24.8245ZM14.7814 15.6947C16.8423 15.6998 18.0443 17.276 18.0443 18.7949C18.0443 21.0629 15.3169 22.4123 12.5032 23.4746C11.7569 21.9816 11.4122 20.6609 11.4122 19.3116C11.4122 17.5653 12.5545 15.7048 14.7814 15.6942V15.6947ZM14.1108 33.6673C11.6132 33.6673 9.3447 32.5476 9.3447 30.0213C9.3447 28.9589 9.71808 27.5236 11.182 26.6049C12.7897 28.8156 14.9431 30.854 17.4121 32.5194C16.5221 33.2371 15.4884 33.6677 14.1104 33.6677L14.1108 33.6673Z" fill="white"/>
<path d="M35.0331 13.1965C33.0807 13.1965 31.0996 13.9715 29.3483 15.4645C27.1375 14.2011 24.6685 13.5695 22.1709 13.5695V16.0671C23.6353 16.1244 26.047 16.5551 27.3672 17.3878C26.0179 19.4835 25.3575 22.0962 25.3002 24.5366H28.2863C28.2863 22.4982 28.803 20.2011 29.7794 18.6507C32.0188 19.9714 33.8274 21.9525 35.3205 23.7898C32.076 24.7658 28.1431 26.4312 28.1431 30.5656C28.1431 33.7236 30.3824 36.164 34.2872 36.164C38.479 36.164 40.6897 33.2357 40.6897 30.135C40.6897 28.4695 40.2303 26.7186 39.2544 24.8235C41.6088 23.5315 42.7571 21.5504 42.7571 19.3397C42.7562 15.5796 39.2535 13.1965 35.0331 13.1965ZM34.3625 33.6668C32.3016 33.6617 31.0996 32.0855 31.0996 30.5666C31.0996 28.2986 33.827 26.9492 36.6407 25.8868C37.387 27.3799 37.7317 28.7006 37.7317 30.0499C37.7317 31.7962 36.5894 33.6566 34.3625 33.6673V33.6668ZM37.9614 22.757C36.3537 20.5463 34.2003 18.508 31.7313 16.8425C32.6213 16.1249 33.6551 15.6942 35.0331 15.6942C37.5307 15.6942 39.7992 16.8139 39.7992 19.3402C39.7992 20.4026 39.4258 21.8379 37.9619 22.7565L37.9614 22.757Z" fill="white"/>
</svg>
